<svg width="1280" height="420" viewBox="0 0 1280 420" fill="none" xmlns="http://www.w3.org/2000/svg" role="img" aria-labelledby="title desc">
  <title id="title">Open Agent Workbench</title>
  <desc id="desc">面向后端 SaaS Agent 流程演示项目的封面图</desc>
  <rect width="1280" height="420" rx="28" fill="#F8FAFC"/>
  <rect x="34" y="34" width="1212" height="352" rx="24" fill="#FFFFFF" stroke="#D7DEE8"/>
  <circle cx="112" cy="112" r="44" fill="#0F172A"/>
  <circle cx="101" cy="101" r="16" fill="#FBBF24"/>
  <path d="M84 142C104 162 138 160 158 136" stroke="#A16207" stroke-width="12" stroke-linecap="round"/>
  <text x="190" y="113" fill="#0F172A" font-family="Inter, Segoe UI, Arial, sans-serif" font-size="44" font-weight="800">Open Agent Workbench</text>
  <text x="192" y="160" fill="#475569" font-family="Inter, Segoe UI, Arial, sans-serif" font-size="22">面向 SaaS 业务场景的后端 Agent 流程演示项目</text>
  <g transform="translate(190 215)">
    <rect width="250" height="88" rx="16" fill="#ECFDF5" stroke="#A7F3D0"/>
    <text x="24" y="36" fill="#065F46" font-family="Inter, Segoe UI, Arial, sans-serif" font-size="20" font-weight="700">银行流水解析</text>
    <text x="24" y="64" fill="#047857" font-family="Inter, Segoe UI, Arial, sans-serif" font-size="15">PDF 识别 / 复核 / 报告</text>
  </g>
  <g transform="translate(472 215)">
    <rect width="250" height="88" rx="16" fill="#EFF6FF" stroke="#BFDBFE"/>
    <text x="24" y="36" fill="#1D4ED8" font-family="Inter, Segoe UI, Arial, sans-serif" font-size="20" font-weight="700">制度文档比对</text>
    <text x="24" y="64" fill="#2563EB" font-family="Inter, Segoe UI, Arial, sans-serif" font-size="15">规则库 / 高亮 / 风险项</text>
  </g>
  <g transform="translate(754 215)">
    <rect width="250" height="88" rx="16" fill="#FFF7ED" stroke="#FED7AA"/>
    <text x="24" y="36" fill="#9A3412" font-family="Inter, Segoe UI, Arial, sans-serif" font-size="20" font-weight="700">合同差异比对</text>
    <text x="24" y="64" fill="#C2410C" font-family="Inter, Segoe UI, Arial, sans-serif" font-size="15">任务轮询 / 预览 / diff</text>
  </g>
  <g transform="translate(1036 215)">
    <rect width="146" height="88" rx="16" fill="#F5F3FF" stroke="#DDD6FE"/>
    <text x="24" y="36" fill="#6D28D9" font-family="Inter, Segoe UI, Arial, sans-serif" font-size="20" font-weight="700">Docker</text>
    <text x="24" y="64" fill="#7C3AED" font-family="Inter, Segoe UI, Arial, sans-serif" font-size="15">本地部署</text>
  </g>
  <text x="190" y="346" fill="#64748B" font-family="Inter, Segoe UI, Arial, sans-serif" font-size="16">FastAPI · Vue 3 · TypeScript · TOML Config · Local Mock Data</text>
</svg>
